<svg xmlns="http://www.w3.org/2000/svg" xmlns:xlink="http://www.w3.org/1999/xlink" width="500" zoomAndPan="magnify" viewBox="0 0 375 374.999991" height="500" preserveAspectRatio="xMidYMid meet" version="1.0"><defs><clipPath id="28ef699f00"><path d="M 5.476562 5.476562 L 369.78125 5.476562 L 369.78125 369.78125 L 5.476562 369.78125 Z M 5.476562 5.476562 " clip-rule="nonzero"/></clipPath><clipPath id="f386277bcb"><path d="M 103.410156 5.476562 L 271.578125 5.476562 C 273.179688 5.476562 274.78125 5.515625 276.382812 5.59375 C 277.984375 5.671875 279.582031 5.792969 281.175781 5.949219 C 282.773438 6.105469 284.363281 6.300781 285.949219 6.539062 C 287.535156 6.773438 289.113281 7.046875 290.683594 7.359375 C 292.257812 7.671875 293.820312 8.023438 295.375 8.414062 C 296.929688 8.800781 298.472656 9.230469 300.007812 9.695312 C 301.539062 10.160156 303.0625 10.660156 304.570312 11.203125 C 306.082031 11.742188 307.574219 12.320312 309.054688 12.933594 C 310.535156 13.546875 312 14.195312 313.449219 14.878906 C 314.898438 15.566406 316.332031 16.285156 317.746094 17.042969 C 319.15625 17.796875 320.550781 18.585938 321.925781 19.410156 C 323.300781 20.234375 324.65625 21.089844 325.988281 21.980469 C 327.320312 22.871094 328.628906 23.796875 329.917969 24.75 C 331.207031 25.703125 332.46875 26.691406 333.707031 27.707031 C 334.945312 28.722656 336.160156 29.769531 337.347656 30.847656 C 338.535156 31.921875 339.695312 33.027344 340.828125 34.160156 C 341.960938 35.296875 343.066406 36.457031 344.144531 37.644531 C 345.21875 38.832031 346.265625 40.042969 347.28125 41.28125 C 348.300781 42.523438 349.285156 43.785156 350.238281 45.074219 C 351.195312 46.359375 352.117188 47.667969 353.007812 49.003906 C 353.898438 50.335938 354.753906 51.6875 355.578125 53.0625 C 356.402344 54.4375 357.195312 55.832031 357.949219 57.246094 C 358.703125 58.660156 359.425781 60.089844 360.109375 61.539062 C 360.796875 62.988281 361.445312 64.453125 362.058594 65.933594 C 362.671875 67.414062 363.25 68.910156 363.789062 70.417969 C 364.328125 71.929688 364.832031 73.449219 365.296875 74.984375 C 365.761719 76.515625 366.1875 78.0625 366.578125 79.617188 C 366.96875 81.171875 367.320312 82.734375 367.632812 84.304688 C 367.945312 85.878906 368.21875 87.457031 368.453125 89.042969 C 368.6875 90.628906 368.882812 92.21875 369.042969 93.8125 C 369.199219 95.40625 369.316406 97.003906 369.394531 98.605469 C 369.472656 100.207031 369.511719 101.808594 369.511719 103.410156 L 369.511719 271.578125 C 369.511719 273.179688 369.472656 274.78125 369.394531 276.382812 C 369.316406 277.984375 369.199219 279.582031 369.042969 281.175781 C 368.882812 282.773438 368.6875 284.363281 368.453125 285.949219 C 368.21875 287.535156 367.945312 289.113281 367.632812 290.683594 C 367.320312 292.257812 366.96875 293.820312 366.578125 295.375 C 366.1875 296.929688 365.761719 298.472656 365.296875 300.007812 C 364.832031 301.539062 364.328125 303.0625 363.789062 304.570312 C 363.25 306.082031 362.671875 307.574219 362.058594 309.054688 C 361.445312 310.535156 360.796875 312 360.109375 313.449219 C 359.425781 314.898438 358.703125 316.332031 357.949219 317.746094 C 357.195312 319.15625 356.402344 320.550781 355.578125 321.925781 C 354.753906 323.300781 353.898438 324.65625 353.007812 325.988281 C 352.117188 327.320312 351.195312 328.628906 350.238281 329.917969 C 349.285156 331.207031 348.300781 332.46875 347.28125 333.707031 C 346.265625 334.945312 345.21875 336.160156 344.144531 337.347656 C 343.066406 338.535156 341.960938 339.695312 340.828125 340.828125 C 339.695312 341.960938 338.535156 343.066406 337.347656 344.144531 C 336.160156 345.21875 334.945312 346.265625 333.707031 347.28125 C 332.46875 348.300781 331.207031 349.285156 329.917969 350.238281 C 328.628906 351.195312 327.320312 352.117188 325.988281 353.007812 C 324.65625 353.898438 323.300781 354.753906 321.925781 355.578125 C 320.550781 356.402344 319.15625 357.195312 317.746094 357.949219 C 316.332031 358.703125 314.898438 359.425781 313.449219 360.109375 C 312 360.796875 310.535156 361.445312 309.054688 362.058594 C 307.574219 362.671875 306.082031 363.25 304.570312 363.789062 C 303.0625 364.328125 301.539062 364.832031 300.007812 365.296875 C 298.472656 365.761719 296.929688 366.1875 295.375 366.578125 C 293.820312 366.96875 292.257812 367.320312 290.683594 367.632812 C 289.113281 367.945312 287.535156 368.21875 285.949219 368.453125 C 284.363281 368.6875 282.773438 368.882812 281.175781 369.042969 C 279.582031 369.199219 277.984375 369.316406 276.382812 369.394531 C 274.78125 369.472656 273.179688 369.511719 271.578125 369.511719 L 103.410156 369.511719 C 101.808594 369.511719 100.207031 369.472656 98.605469 369.394531 C 97.003906 369.316406 95.40625 369.199219 93.8125 369.042969 C 92.21875 368.882812 90.628906 368.6875 89.042969 368.453125 C 87.457031 368.21875 85.878906 367.945312 84.304688 367.632812 C 82.734375 367.320312 81.171875 366.96875 79.617188 366.578125 C 78.0625 366.1875 76.515625 365.761719 74.984375 365.296875 C 73.449219 364.832031 71.929688 364.328125 70.417969 363.789062 C 68.910156 363.25 67.414062 362.671875 65.933594 362.058594 C 64.453125 361.445312 62.988281 360.796875 61.539062 360.109375 C 60.089844 359.425781 58.660156 358.703125 57.246094 357.949219 C 55.832031 357.195312 54.4375 356.402344 53.0625 355.578125 C 51.6875 354.753906 50.335938 353.898438 49.003906 353.007812 C 47.667969 352.117188 46.359375 351.195312 45.074219 350.238281 C 43.785156 349.285156 42.523438 348.300781 41.28125 347.28125 C 40.042969 346.265625 38.832031 345.21875 37.644531 344.144531 C 36.457031 343.066406 35.296875 341.960938 34.160156 340.828125 C 33.027344 339.695312 31.921875 338.535156 30.847656 337.347656 C 29.769531 336.160156 28.722656 334.945312 27.707031 333.707031 C 26.691406 332.46875 25.703125 331.207031 24.75 329.917969 C 23.796875 328.628906 22.871094 327.320312 21.980469 325.988281 C 21.089844 324.65625 20.234375 323.300781 19.410156 321.925781 C 18.585938 320.550781 17.796875 319.15625 17.042969 317.746094 C 16.285156 316.332031 15.566406 314.898438 14.878906 313.449219 C 14.195312 312 13.546875 310.535156 12.933594 309.054688 C 12.320312 307.574219 11.742188 306.082031 11.203125 304.570312 C 10.660156 303.0625 10.160156 301.539062 9.695312 300.007812 C 9.230469 298.472656 8.800781 296.929688 8.414062 295.375 C 8.023438 293.820312 7.671875 292.257812 7.359375 290.683594 C 7.046875 289.113281 6.773438 287.535156 6.539062 285.949219 C 6.300781 284.363281 6.105469 282.773438 5.949219 281.175781 C 5.792969 279.582031 5.671875 277.984375 5.59375 276.382812 C 5.515625 274.78125 5.476562 273.179688 5.476562 271.578125 L 5.476562 103.410156 C 5.476562 101.808594 5.515625 100.207031 5.59375 98.605469 C 5.671875 97.003906 5.792969 95.40625 5.949219 93.8125 C 6.105469 92.21875 6.300781 90.628906 6.539062 89.042969 C 6.773438 87.457031 7.046875 85.878906 7.359375 84.304688 C 7.671875 82.734375 8.023438 81.171875 8.414062 79.617188 C 8.800781 78.0625 9.230469 76.515625 9.695312 74.984375 C 10.160156 73.449219 10.660156 71.929688 11.203125 70.417969 C 11.742188 68.910156 12.320312 67.414062 12.933594 65.933594 C 13.546875 64.453125 14.195312 62.988281 14.878906 61.539062 C 15.566406 60.089844 16.285156 58.660156 17.042969 57.246094 C 17.796875 55.832031 18.585938 54.4375 19.410156 53.0625 C 20.234375 51.6875 21.089844 50.335938 21.980469 49.003906 C 22.871094 47.667969 23.796875 46.359375 24.75 45.074219 C 25.703125 43.785156 26.691406 42.523438 27.707031 41.28125 C 28.722656 40.042969 29.769531 38.832031 30.847656 37.644531 C 31.921875 36.457031 33.027344 35.296875 34.160156 34.160156 C 35.296875 33.027344 36.457031 31.921875 37.644531 30.847656 C 38.832031 29.769531 40.042969 28.722656 41.28125 27.707031 C 42.523438 26.691406 43.785156 25.703125 45.074219 24.75 C 46.359375 23.796875 47.667969 22.871094 49.003906 21.980469 C 50.335938 21.089844 51.6875 20.234375 53.0625 19.410156 C 54.4375 18.585938 55.832031 17.796875 57.246094 17.042969 C 58.660156 16.285156 60.089844 15.566406 61.539062 14.878906 C 62.988281 14.195312 64.453125 13.546875 65.933594 12.933594 C 67.414062 12.320312 68.910156 11.742188 70.417969 11.203125 C 71.929688 10.660156 73.449219 10.160156 74.984375 9.695312 C 76.515625 9.230469 78.0625 8.800781 79.617188 8.414062 C 81.171875 8.023438 82.734375 7.671875 84.304688 7.359375 C 85.878906 7.046875 87.457031 6.773438 89.042969 6.539062 C 90.628906 6.300781 92.21875 6.105469 93.8125 5.949219 C 95.40625 5.792969 97.003906 5.671875 98.605469 5.59375 C 100.207031 5.515625 101.808594 5.476562 103.410156 5.476562 Z M 103.410156 5.476562 " clip-rule="nonzero"/></clipPath><linearGradient x1="21.351889" gradientTransform="matrix(0, -1.542525, 1.542525, 0, 5.477136, 369.513055)" y1="-15.462282" x2="214.648937" gradientUnits="userSpaceOnUse" y2="251.461721" id="f557f85b35"><stop stop-opacity="1" stop-color="rgb(47.53418%, 78.598022%, 95.73822%)" offset="0"/><stop stop-opacity="1" stop-color="rgb(47.361755%, 78.2547%, 95.687866%)" offset="0.00390625"/><stop stop-opacity="1" stop-color="rgb(47.189331%, 77.912903%, 95.639038%)" offset="0.0078125"/><stop stop-opacity="1" stop-color="rgb(47.016907%, 77.56958%, 95.59021%)" offset="0.0117187"/><stop stop-opacity="1" stop-color="rgb(46.844482%, 77.226257%, 95.541382%)" offset="0.015625"/><stop stop-opacity="1" stop-color="rgb(46.672058%, 76.882935%, 95.491028%)" offset="0.0195312"/><stop stop-opacity="1" stop-color="rgb(46.499634%, 76.541138%, 95.4422%)" offset="0.0234375"/><stop stop-opacity="1" stop-color="rgb(46.327209%, 76.197815%, 95.391846%)" offset="0.0273438"/><stop stop-opacity="1" stop-color="rgb(46.154785%, 75.856018%, 95.343018%)" offset="0.03125"/><stop stop-opacity="1" stop-color="rgb(45.982361%, 75.512695%, 95.294189%)" offset="0.0351563"/><stop stop-opacity="1" stop-color="rgb(45.809937%, 75.169373%, 95.245361%)" offset="0.0390625"/><stop stop-opacity="1" stop-color="rgb(45.637512%, 74.82605%, 95.195007%)" offset="0.0429688"/><stop stop-opacity="1" stop-color="rgb(45.465088%, 74.484253%, 95.146179%)" offset="0.046875"/><stop stop-opacity="1" stop-color="rgb(45.292664%, 74.14093%, 95.097351%)" offset="0.0507813"/><stop stop-opacity="1" stop-color="rgb(45.120239%, 73.797607%, 95.048523%)" offset="0.0546875"/><stop stop-opacity="1" stop-color="rgb(44.947815%, 73.454285%, 94.998169%)" offset="0.0585938"/><stop stop-opacity="1" stop-color="rgb(44.775391%, 73.112488%, 94.949341%)" offset="0.0625"/><stop stop-opacity="1" stop-color="rgb(44.602966%, 72.769165%, 94.900513%)" offset="0.0664062"/><stop stop-opacity="1" stop-color="rgb(44.430542%, 72.425842%, 94.851685%)" offset="0.0703125"/><stop stop-opacity="1" stop-color="rgb(44.258118%, 72.08252%, 94.801331%)" offset="0.0742187"/><stop stop-opacity="1" stop-color="rgb(44.085693%, 71.740723%, 94.752502%)" offset="0.078125"/><stop stop-opacity="1" stop-color="rgb(43.913269%, 71.3974%, 94.702148%)" offset="0.0820312"/><stop stop-opacity="1" stop-color="rgb(43.740845%, 71.054077%, 94.65332%)" offset="0.0859375"/><stop stop-opacity="1" stop-color="rgb(43.56842%, 70.710754%, 94.604492%)" offset="0.0898437"/><stop stop-opacity="1" stop-color="rgb(43.395996%, 70.368958%, 94.555664%)" offset="0.09375"/><stop stop-opacity="1" stop-color="rgb(43.223572%, 70.025635%, 94.50531%)" offset="0.0976562"/><stop stop-opacity="1" stop-color="rgb(43.051147%, 69.682312%, 94.456482%)" offset="0.101563"/><stop stop-opacity="1" stop-color="rgb(42.878723%, 69.338989%, 94.407654%)" offset="0.105469"/><stop stop-opacity="1" stop-color="rgb(42.706299%, 68.997192%, 94.358826%)" offset="0.109375"/><stop stop-opacity="1" stop-color="rgb(42.533875%, 68.65387%, 94.308472%)" offset="0.113281"/><stop stop-opacity="1" stop-color="rgb(42.36145%, 68.312073%, 94.259644%)" offset="0.117188"/><stop stop-opacity="1" stop-color="rgb(42.189026%, 67.96875%, 94.210815%)" offset="0.121094"/><stop stop-opacity="1" stop-color="rgb(42.016602%, 67.625427%, 94.161987%)" offset="0.125"/><stop stop-opacity="1" stop-color="rgb(41.844177%, 67.282104%, 94.111633%)" offset="0.128906"/><stop stop-opacity="1" stop-color="rgb(41.671753%, 66.940308%, 94.062805%)" offset="0.132813"/><stop stop-opacity="1" stop-color="rgb(41.499329%, 66.596985%, 94.012451%)" offset="0.136719"/><stop stop-opacity="1" stop-color="rgb(41.326904%, 66.253662%, 93.963623%)" offset="0.140625"/><stop stop-opacity="1" stop-color="rgb(41.15448%, 65.910339%, 93.914795%)" offset="0.144531"/><stop stop-opacity="1" stop-color="rgb(40.982056%, 65.568542%, 93.865967%)" offset="0.148438"/><stop stop-opacity="1" stop-color="rgb(40.809631%, 65.22522%, 93.815613%)" offset="0.152344"/><stop stop-opacity="1" stop-color="rgb(40.637207%, 64.881897%, 93.766785%)" offset="0.15625"/><stop stop-opacity="1" stop-color="rgb(40.464783%, 64.538574%, 93.717957%)" offset="0.160156"/><stop stop-opacity="1" stop-color="rgb(40.292358%, 64.196777%, 93.669128%)" offset="0.164063"/><stop stop-opacity="1" stop-color="rgb(40.119934%, 63.853455%, 93.618774%)" offset="0.167969"/><stop stop-opacity="1" stop-color="rgb(39.94751%, 63.510132%, 93.569946%)" offset="0.171875"/><stop stop-opacity="1" stop-color="rgb(39.775085%, 63.166809%, 93.521118%)" offset="0.175781"/><stop stop-opacity="1" stop-color="rgb(39.602661%, 62.825012%, 93.47229%)" offset="0.179688"/><stop stop-opacity="1" stop-color="rgb(39.430237%, 62.481689%, 93.421936%)" offset="0.183594"/><stop stop-opacity="1" stop-color="rgb(39.257812%, 62.139893%, 93.373108%)" offset="0.1875"/><stop stop-opacity="1" stop-color="rgb(39.085388%, 61.79657%, 93.322754%)" offset="0.191406"/><stop stop-opacity="1" stop-color="rgb(38.912964%, 61.453247%, 93.273926%)" offset="0.195313"/><stop stop-opacity="1" stop-color="rgb(38.74054%, 61.109924%, 93.225098%)" offset="0.199219"/><stop stop-opacity="1" stop-color="rgb(38.568115%, 60.768127%, 93.17627%)" offset="0.203125"/><stop stop-opacity="1" stop-color="rgb(38.395691%, 60.424805%, 93.125916%)" offset="0.207031"/><stop stop-opacity="1" stop-color="rgb(38.223267%, 60.081482%, 93.077087%)" offset="0.210938"/><stop stop-opacity="1" stop-color="rgb(38.050842%, 59.738159%, 93.028259%)" offset="0.214844"/><stop stop-opacity="1" stop-color="rgb(37.878418%, 59.396362%, 92.979431%)" offset="0.21875"/><stop stop-opacity="1" stop-color="rgb(37.705994%, 59.05304%, 92.929077%)" offset="0.222656"/><stop stop-opacity="1" stop-color="rgb(37.533569%, 58.709717%, 92.880249%)" offset="0.226563"/><stop stop-opacity="1" stop-color="rgb(37.361145%, 58.366394%, 92.831421%)" offset="0.230469"/><stop stop-opacity="1" stop-color="rgb(37.188721%, 58.024597%, 92.782593%)" offset="0.234375"/><stop stop-opacity="1" stop-color="rgb(37.016296%, 57.681274%, 92.732239%)" offset="0.238281"/><stop stop-opacity="1" stop-color="rgb(36.843872%, 57.337952%, 92.683411%)" offset="0.242188"/><stop stop-opacity="1" stop-color="rgb(36.671448%, 56.994629%, 92.633057%)" offset="0.246094"/><stop stop-opacity="1" stop-color="rgb(36.499023%, 56.652832%, 92.584229%)" offset="0.25"/><stop stop-opacity="1" stop-color="rgb(36.326599%, 56.309509%, 92.5354%)" offset="0.253906"/><stop stop-opacity="1" stop-color="rgb(36.154175%, 55.966187%, 92.486572%)" offset="0.257812"/><stop stop-opacity="1" stop-color="rgb(35.98175%, 55.622864%, 92.436218%)" offset="0.261719"/><stop stop-opacity="1" stop-color="rgb(35.809326%, 55.281067%, 92.38739%)" offset="0.265625"/><stop stop-opacity="1" stop-color="rgb(35.636902%, 54.937744%, 92.338562%)" offset="0.269531"/><stop stop-opacity="1" stop-color="rgb(35.464478%, 54.595947%, 92.289734%)" offset="0.273438"/><stop stop-opacity="1" stop-color="rgb(35.292053%, 54.252625%, 92.23938%)" offset="0.277344"/><stop stop-opacity="1" stop-color="rgb(35.119629%, 53.909302%, 92.190552%)" offset="0.28125"/><stop stop-opacity="1" stop-color="rgb(34.947205%, 53.565979%, 92.141724%)" offset="0.285156"/><stop stop-opacity="1" stop-color="rgb(34.77478%, 53.224182%, 92.092896%)" offset="0.289062"/><stop stop-opacity="1" stop-color="rgb(34.602356%, 52.880859%, 92.042542%)" offset="0.292969"/><stop stop-opacity="1" stop-color="rgb(34.429932%, 52.537537%, 91.993713%)" offset="0.296875"/><stop stop-opacity="1" stop-color="rgb(34.257507%, 52.194214%, 91.943359%)" offset="0.300781"/><stop stop-opacity="1" stop-color="rgb(34.085083%, 51.852417%, 91.894531%)" offset="0.304688"/><stop stop-opacity="1" stop-color="rgb(33.912659%, 51.509094%, 91.845703%)" offset="0.308594"/><stop stop-opacity="1" stop-color="rgb(33.740234%, 51.165771%, 91.796875%)" offset="0.3125"/><stop stop-opacity="1" stop-color="rgb(33.56781%, 50.822449%, 91.746521%)" offset="0.316406"/><stop stop-opacity="1" stop-color="rgb(33.395386%, 50.480652%, 91.697693%)" offset="0.320313"/><stop stop-opacity="1" stop-color="rgb(33.222961%, 50.137329%, 91.648865%)" offset="0.324219"/><stop stop-opacity="1" stop-color="rgb(33.050537%, 49.794006%, 91.600037%)" offset="0.328125"/><stop stop-opacity="1" stop-color="rgb(32.878113%, 49.450684%, 91.549683%)" offset="0.332031"/><stop stop-opacity="1" stop-color="rgb(32.705688%, 49.108887%, 91.500854%)" offset="0.335938"/><stop stop-opacity="1" stop-color="rgb(32.533264%, 48.765564%, 91.452026%)" offset="0.339844"/><stop stop-opacity="1" stop-color="rgb(32.36084%, 48.422241%, 91.403198%)" offset="0.34375"/><stop stop-opacity="1" stop-color="rgb(32.188416%, 48.078918%, 91.352844%)" offset="0.347656"/><stop stop-opacity="1" stop-color="rgb(32.015991%, 47.737122%, 91.304016%)" offset="0.351563"/><stop stop-opacity="1" stop-color="rgb(31.843567%, 47.393799%, 91.253662%)" offset="0.355469"/><stop stop-opacity="1" stop-color="rgb(31.671143%, 47.052002%, 91.204834%)" offset="0.359375"/><stop stop-opacity="1" stop-color="rgb(31.498718%, 46.708679%, 91.156006%)" offset="0.363281"/><stop stop-opacity="1" stop-color="rgb(31.326294%, 46.365356%, 91.107178%)" offset="0.367188"/><stop stop-opacity="1" stop-color="rgb(31.15387%, 46.022034%, 91.056824%)" offset="0.371094"/><stop stop-opacity="1" stop-color="rgb(30.981445%, 45.680237%, 91.007996%)" offset="0.375"/><stop stop-opacity="1" stop-color="rgb(30.809021%, 45.336914%, 90.959167%)" offset="0.378906"/><stop stop-opacity="1" stop-color="rgb(30.636597%, 44.993591%, 90.910339%)" offset="0.382813"/><stop stop-opacity="1" stop-color="rgb(30.464172%, 44.650269%, 90.859985%)" offset="0.386719"/><stop stop-opacity="1" stop-color="rgb(30.291748%, 44.308472%, 90.811157%)" offset="0.390625"/><stop stop-opacity="1" stop-color="rgb(30.119324%, 43.965149%, 90.762329%)" offset="0.394531"/><stop stop-opacity="1" stop-color="rgb(29.946899%, 43.621826%, 90.713501%)" offset="0.398438"/><stop stop-opacity="1" stop-color="rgb(29.774475%, 43.278503%, 90.663147%)" offset="0.402344"/><stop stop-opacity="1" stop-color="rgb(29.602051%, 42.936707%, 90.614319%)" offset="0.40625"/><stop stop-opacity="1" stop-color="rgb(29.429626%, 42.593384%, 90.565491%)" offset="0.410156"/><stop stop-opacity="1" stop-color="rgb(29.257202%, 42.250061%, 90.516663%)" offset="0.414063"/><stop stop-opacity="1" stop-color="rgb(29.084778%, 41.906738%, 90.466309%)" offset="0.417969"/><stop stop-opacity="1" stop-color="rgb(28.912354%, 41.564941%, 90.41748%)" offset="0.421875"/><stop stop-opacity="1" stop-color="rgb(28.739929%, 41.221619%, 90.367126%)" offset="0.425781"/><stop stop-opacity="1" stop-color="rgb(28.567505%, 40.879822%, 90.318298%)" offset="0.429688"/><stop stop-opacity="1" stop-color="rgb(28.395081%, 40.536499%, 90.26947%)" offset="0.433594"/><stop stop-opacity="1" stop-color="rgb(28.222656%, 40.193176%, 90.220642%)" offset="0.4375"/><stop stop-opacity="1" stop-color="rgb(28.050232%, 39.849854%, 90.170288%)" offset="0.441406"/><stop stop-opacity="1" stop-color="rgb(27.877808%, 39.508057%, 90.12146%)" offset="0.445313"/><stop stop-opacity="1" stop-color="rgb(27.705383%, 39.164734%, 90.072632%)" offset="0.449219"/><stop stop-opacity="1" stop-color="rgb(27.532959%, 38.821411%, 90.023804%)" offset="0.453125"/><stop stop-opacity="1" stop-color="rgb(27.360535%, 38.478088%, 89.97345%)" offset="0.457031"/><stop stop-opacity="1" stop-color="rgb(27.18811%, 38.136292%, 89.924622%)" offset="0.460938"/><stop stop-opacity="1" stop-color="rgb(27.015686%, 37.792969%, 89.875793%)" offset="0.464844"/><stop stop-opacity="1" stop-color="rgb(26.843262%, 37.449646%, 89.826965%)" offset="0.46875"/><stop stop-opacity="1" stop-color="rgb(26.670837%, 37.106323%, 89.776611%)" offset="0.472656"/><stop stop-opacity="1" stop-color="rgb(26.498413%, 36.764526%, 89.727783%)" offset="0.476563"/><stop stop-opacity="1" stop-color="rgb(26.325989%, 36.421204%, 89.677429%)" offset="0.480469"/><stop stop-opacity="1" stop-color="rgb(26.153564%, 36.077881%, 89.628601%)" offset="0.484375"/><stop stop-opacity="1" stop-color="rgb(25.98114%, 35.734558%, 89.579773%)" offset="0.488281"/><stop stop-opacity="1" stop-color="rgb(25.808716%, 35.392761%, 89.530945%)" offset="0.492188"/><stop stop-opacity="1" stop-color="rgb(25.636292%, 35.049438%, 89.480591%)" offset="0.496094"/><stop stop-opacity="1" stop-color="rgb(25.463867%, 34.706116%, 89.431763%)" offset="0.5"/><stop stop-opacity="1" stop-color="rgb(25.291443%, 34.362793%, 89.382935%)" offset="0.503906"/><stop stop-opacity="1" stop-color="rgb(25.119019%, 34.020996%, 89.334106%)" offset="0.507812"/><stop stop-opacity="1" stop-color="rgb(24.946594%, 33.677673%, 89.283752%)" offset="0.511719"/><stop stop-opacity="1" stop-color="rgb(24.77417%, 33.335876%, 89.234924%)" offset="0.515625"/><stop stop-opacity="1" stop-color="rgb(24.601746%, 32.992554%, 89.186096%)" offset="0.519531"/><stop stop-opacity="1" stop-color="rgb(24.429321%, 32.649231%, 89.137268%)" offset="0.523437"/><stop stop-opacity="1" stop-color="rgb(24.256897%, 32.305908%, 89.086914%)" offset="0.527344"/><stop stop-opacity="1" stop-color="rgb(24.084473%, 31.964111%, 89.038086%)" offset="0.53125"/><stop stop-opacity="1" stop-color="rgb(23.912048%, 31.620789%, 88.987732%)" offset="0.535156"/><stop stop-opacity="1" stop-color="rgb(23.739624%, 31.277466%, 88.938904%)" offset="0.539062"/><stop stop-opacity="1" stop-color="rgb(23.5672%, 30.934143%, 88.890076%)" offset="0.542969"/><stop stop-opacity="1" stop-color="rgb(23.394775%, 30.592346%, 88.841248%)" offset="0.546875"/><stop stop-opacity="1" stop-color="rgb(23.222351%, 30.249023%, 88.790894%)" offset="0.550781"/><stop stop-opacity="1" stop-color="rgb(23.049927%, 29.905701%, 88.742065%)" offset="0.554687"/><stop stop-opacity="1" stop-color="rgb(22.877502%, 29.562378%, 88.693237%)" offset="0.558594"/><stop stop-opacity="1" stop-color="rgb(22.705078%, 29.220581%, 88.644409%)" offset="0.5625"/><stop stop-opacity="1" stop-color="rgb(22.532654%, 28.877258%, 88.594055%)" offset="0.566406"/><stop stop-opacity="1" stop-color="rgb(22.360229%, 28.533936%, 88.545227%)" offset="0.570312"/><stop stop-opacity="1" stop-color="rgb(22.187805%, 28.190613%, 88.496399%)" offset="0.574219"/><stop stop-opacity="1" stop-color="rgb(22.015381%, 27.848816%, 88.447571%)" offset="0.578125"/><stop stop-opacity="1" stop-color="rgb(21.842957%, 27.505493%, 88.397217%)" offset="0.582031"/><stop stop-opacity="1" stop-color="rgb(21.670532%, 27.16217%, 88.348389%)" offset="0.585938"/><stop stop-opacity="1" stop-color="rgb(21.498108%, 26.818848%, 88.298035%)" offset="0.589844"/><stop stop-opacity="1" stop-color="rgb(21.325684%, 26.477051%, 88.249207%)" offset="0.59375"/><stop stop-opacity="1" stop-color="rgb(21.153259%, 26.133728%, 88.200378%)" offset="0.597656"/><stop stop-opacity="1" stop-color="rgb(20.980835%, 25.791931%, 88.15155%)" offset="0.601562"/><stop stop-opacity="1" stop-color="rgb(20.808411%, 25.448608%, 88.101196%)" offset="0.605469"/><stop stop-opacity="1" stop-color="rgb(20.635986%, 25.105286%, 88.052368%)" offset="0.609375"/><stop stop-opacity="1" stop-color="rgb(20.463562%, 24.761963%, 88.00354%)" offset="0.613281"/><stop stop-opacity="1" stop-color="rgb(20.291138%, 24.420166%, 87.954712%)" offset="0.617188"/><stop stop-opacity="1" stop-color="rgb(20.118713%, 24.076843%, 87.904358%)" offset="0.621094"/><stop stop-opacity="1" stop-color="rgb(19.946289%, 23.733521%, 87.85553%)" offset="0.625"/><stop stop-opacity="1" stop-color="rgb(19.773865%, 23.390198%, 87.806702%)" offset="0.628906"/><stop stop-opacity="1" stop-color="rgb(19.602966%, 23.048401%, 87.757874%)" offset="0.632812"/><stop stop-opacity="1" stop-color="rgb(19.430542%, 22.705078%, 87.70752%)" offset="0.636719"/><stop stop-opacity="1" stop-color="rgb(19.258118%, 22.361755%, 87.658691%)" offset="0.640625"/><stop stop-opacity="1" stop-color="rgb(19.085693%, 22.018433%, 87.608337%)" offset="0.644531"/><stop stop-opacity="1" stop-color="rgb(18.913269%, 21.676636%, 87.559509%)" offset="0.648438"/><stop stop-opacity="1" stop-color="rgb(18.740845%, 21.333313%, 87.510681%)" offset="0.652344"/><stop stop-opacity="1" stop-color="rgb(18.56842%, 20.98999%, 87.461853%)" offset="0.65625"/><stop stop-opacity="1" stop-color="rgb(18.395996%, 20.646667%, 87.411499%)" offset="0.660156"/><stop stop-opacity="1" stop-color="rgb(18.223572%, 20.304871%, 87.362671%)" offset="0.664062"/><stop stop-opacity="1" stop-color="rgb(18.051147%, 19.961548%, 87.313843%)" offset="0.667969"/><stop stop-opacity="1" stop-color="rgb(17.878723%, 19.618225%, 87.265015%)" offset="0.671875"/><stop stop-opacity="1" stop-color="rgb(17.706299%, 19.274902%, 87.214661%)" offset="0.675781"/><stop stop-opacity="1" stop-color="rgb(17.533875%, 18.933105%, 87.165833%)" offset="0.679688"/><stop stop-opacity="1" stop-color="rgb(17.36145%, 18.589783%, 87.117004%)" offset="0.683594"/><stop stop-opacity="1" stop-color="rgb(17.189026%, 18.247986%, 87.068176%)" offset="0.6875"/><stop stop-opacity="1" stop-color="rgb(17.016602%, 17.904663%, 87.017822%)" offset="0.691406"/><stop stop-opacity="1" stop-color="rgb(16.844177%, 17.56134%, 86.968994%)" offset="0.695312"/><stop stop-opacity="1" stop-color="rgb(16.671753%, 17.218018%, 86.91864%)" offset="0.699219"/><stop stop-opacity="1" stop-color="rgb(16.499329%, 16.876221%, 86.869812%)" offset="0.703125"/><stop stop-opacity="1" stop-color="rgb(16.326904%, 16.532898%, 86.820984%)" offset="0.707031"/><stop stop-opacity="1" stop-color="rgb(16.15448%, 16.189575%, 86.772156%)" offset="0.710938"/><stop stop-opacity="1" stop-color="rgb(15.982056%, 15.846252%, 86.721802%)" offset="0.714844"/><stop stop-opacity="1" stop-color="rgb(15.809631%, 15.504456%, 86.672974%)" offset="0.71875"/><stop stop-opacity="1" stop-color="rgb(15.637207%, 15.161133%, 86.624146%)" offset="0.722656"/><stop stop-opacity="1" stop-color="rgb(15.464783%, 14.81781%, 86.575317%)" offset="0.726562"/><stop stop-opacity="1" stop-color="rgb(15.292358%, 14.474487%, 86.524963%)" offset="0.730469"/><stop stop-opacity="1" stop-color="rgb(15.119934%, 14.13269%, 86.476135%)" offset="0.734375"/><stop stop-opacity="1" stop-color="rgb(14.94751%, 13.789368%, 86.427307%)" offset="0.738281"/><stop stop-opacity="1" stop-color="rgb(14.775085%, 13.446045%, 86.378479%)" offset="0.742188"/><stop stop-opacity="1" stop-color="rgb(14.63623%, 13.172913%, 86.338806%)" offset="0.746094"/><stop stop-opacity="1" stop-color="rgb(14.498901%, 12.89978%, 86.299133%)" offset="0.75"/><stop stop-opacity="1" stop-color="rgb(14.498901%, 12.89978%, 86.299133%)" offset="1"/></linearGradient><clipPath id="e7d6171fed"><path d="M 57.796875 28.976562 L 316.894531 28.976562 L 316.894531 346.136719 L 57.796875 346.136719 Z M 57.796875 28.976562 " clip-rule="nonzero"/></clipPath></defs><g clip-path="url(#28ef699f00)"><g clip-path="url(#f386277bcb)"><path fill="url(#f557f85b35)" d="M 5.476562 369.511719 L 369.511719 369.511719 L 369.511719 5.476562 L 5.476562 5.476562 Z M 5.476562 369.511719 " fill-rule="nonzero"/></g></g><g clip-path="url(#e7d6171fed)"><path fill="#879aec" d="M 187.5 28.941406 C 259.039062 28.941406 317.136719 87.035156 317.136719 158.574219 C 317.136719 236.648438 239.761719 298.105469 187.5 346.050781 C 135.238281 298.039062 57.863281 236.648438 57.863281 158.574219 C 57.863281 87.035156 115.707031 28.941406 187.5 28.941406 Z M 187.5 65.15625 C 213.375 65.15625 236.652344 75.746094 253.585938 92.679688 C 270.519531 109.359375 280.859375 132.890625 280.859375 158.574219 C 280.859375 184.453125 270.519531 207.726562 253.585938 224.660156 C 236.652344 241.59375 213.375 252.1875 187.5 252.1875 C 161.625 252.1875 138.347656 241.59375 121.414062 224.660156 C 104.480469 207.726562 94.140625 184.453125 94.140625 158.574219 C 94.140625 132.953125 104.480469 109.421875 121.414062 92.679688 C 138.347656 75.746094 161.625 65.15625 187.5 65.15625 Z M 196.632812 239.945312 L 196.632812 132.445312 L 178.304688 132.445312 L 178.304688 239.945312 C 181.347656 240.390625 184.390625 240.390625 187.5 240.390625 C 190.542969 240.453125 193.589844 240.453125 196.632812 239.945312 Z M 208.175781 132.445312 L 208.175781 156.230469 L 241.15625 156.230469 L 241.15625 220.476562 C 242.550781 219.269531 244.007812 217.875 245.40625 216.480469 C 260.246094 201.894531 269.378906 181.40625 269.378906 158.640625 C 269.378906 136.058594 260.183594 115.574219 245.40625 100.796875 C 230.628906 86.019531 210.078125 76.695312 187.5 76.695312 C 164.921875 76.695312 144.4375 85.894531 129.660156 100.671875 C 114.882812 115.449219 105.683594 135.933594 105.683594 158.511719 C 105.683594 181.34375 114.882812 201.765625 129.660156 216.351562 C 131.5625 218.445312 133.65625 220.347656 135.746094 221.996094 L 135.746094 142.339844 L 166.824219 142.339844 L 166.824219 120.902344 L 208.175781 120.902344 Z M 208.175781 167.707031 L 208.175781 237.789062 C 215.722656 235.886719 223.015625 232.84375 229.613281 228.847656 L 229.613281 167.707031 Z M 147.226562 230.050781 C 153.316406 233.351562 159.722656 235.949219 166.761719 237.789062 L 166.761719 153.882812 L 147.226562 153.882812 Z M 187.5 53.167969 C 245.847656 53.167969 292.90625 100.480469 292.90625 158.574219 C 292.90625 216.925781 245.847656 264.171875 187.5 264.171875 C 129.152344 264.171875 82.09375 216.925781 82.09375 158.574219 C 82.09375 100.480469 129.152344 53.167969 187.5 53.167969 Z M 187.5 53.167969 " fill-opacity="1" fill-rule="nonzero"/></g><path fill="#ffffff" d="M 121.351562 224.660156 C 104.417969 207.726562 94.078125 184.453125 94.078125 158.574219 C 94.078125 132.953125 104.417969 109.421875 121.351562 92.679688 C 138.285156 75.746094 161.558594 65.15625 187.4375 65.15625 C 213.3125 65.15625 236.589844 75.746094 253.523438 92.679688 C 270.457031 109.359375 280.792969 132.890625 280.792969 158.574219 C 280.792969 184.453125 270.457031 207.726562 253.523438 224.660156 C 236.589844 241.59375 213.375 252.1875 187.5 252.1875 C 161.625 252.1875 138.347656 241.59375 121.351562 224.660156 Z M 292.84375 158.574219 C 292.84375 100.480469 245.785156 53.167969 187.4375 53.167969 C 129.089844 53.167969 82.09375 100.480469 82.09375 158.574219 C 82.09375 216.925781 129.152344 264.171875 187.5 264.171875 C 245.847656 264.171875 292.84375 216.925781 292.84375 158.574219 Z M 292.84375 158.574219 " fill-opacity="1" fill-rule="nonzero"/><path fill="#ffffff" d="M 105.621094 158.574219 C 105.621094 181.40625 114.816406 201.828125 129.59375 216.417969 C 131.496094 218.507812 133.589844 220.410156 135.683594 222.0625 L 135.683594 142.339844 L 166.761719 142.339844 L 166.761719 120.902344 L 208.175781 120.902344 L 208.175781 156.230469 L 241.15625 156.230469 L 241.15625 220.476562 C 242.550781 219.269531 244.007812 217.875 245.40625 216.480469 C 260.246094 201.894531 269.378906 181.40625 269.378906 158.640625 C 269.378906 136.058594 260.183594 115.574219 245.40625 100.796875 C 230.628906 86.019531 210.078125 76.695312 187.5 76.695312 C 164.921875 76.695312 144.4375 85.894531 129.660156 100.671875 C 114.882812 115.449219 105.621094 135.996094 105.621094 158.574219 Z M 105.621094 158.574219 " fill-opacity="1" fill-rule="nonzero"/><path fill="#ffffff" d="M 147.226562 153.882812 L 147.226562 230.117188 C 153.316406 233.414062 159.722656 236.015625 166.761719 237.851562 L 166.761719 153.882812 Z M 147.226562 153.882812 " fill-opacity="1" fill-rule="nonzero"/><path fill="#ffffff" d="M 178.304688 132.445312 L 178.304688 239.945312 C 181.347656 240.390625 184.390625 240.390625 187.5 240.390625 C 190.542969 240.390625 193.589844 240.390625 196.695312 239.945312 L 196.695312 132.445312 Z M 178.304688 132.445312 " fill-opacity="1" fill-rule="nonzero"/><path fill="#ffffff" d="M 208.175781 167.707031 L 208.175781 237.789062 C 215.722656 235.886719 223.015625 232.84375 229.613281 228.847656 L 229.613281 167.707031 Z M 208.175781 167.707031 " fill-opacity="1" fill-rule="nonzero"/></svg>